<svg width="88" height="104" viewBox="0 0 88 104" fill="none" xmlns="http://www.w3.org/2000/svg">
<path d="M61.6733 34.5L35.1634 49.6554V19.3446L61.6733 34.5Z" fill="white"/>
<circle cx="44" cy="35" r="34" stroke="white" stroke-width="2"/>
<path d="M1.58523 100V86.9091H6.00852C7.03551 86.9091 7.875 87.0945 8.52699 87.4652C9.18324 87.8317 9.66903 88.3281 9.98438 88.9545C10.2997 89.581 10.4574 90.2798 10.4574 91.0511C10.4574 91.8224 10.2997 92.5234 9.98438 93.1541C9.6733 93.7848 9.19176 94.2876 8.53977 94.6626C7.88778 95.0334 7.05256 95.2188 6.03409 95.2188H2.86364V93.8125H5.98295C6.68608 93.8125 7.25071 93.6911 7.67685 93.4482C8.10298 93.2053 8.41193 92.8771 8.60369 92.4638C8.79972 92.0462 8.89773 91.5753 8.89773 91.0511C8.89773 90.527 8.79972 90.0582 8.60369 89.6449C8.41193 89.2315 8.10085 88.9077 7.67045 88.6733C7.24006 88.4347 6.66903 88.3153 5.95739 88.3153H3.17045V100H1.58523ZM14.315 86.9091V100H12.8065V86.9091H14.315ZM19.9672 100.23C19.345 100.23 18.7804 100.113 18.2733 99.8786C17.7662 99.6399 17.3635 99.2969 17.0652 98.8494C16.7669 98.3977 16.6177 97.8523 16.6177 97.2131C16.6177 96.6506 16.7285 96.1946 16.9501 95.8452C17.1717 95.4915 17.4679 95.2145 17.8386 95.0142C18.2093 94.8139 18.6184 94.6648 19.0659 94.5668C19.5176 94.4645 19.9714 94.3835 20.4274 94.3239C21.024 94.2472 21.5076 94.1896 21.8784 94.1513C22.2534 94.1087 22.5261 94.0384 22.6966 93.9403C22.8713 93.8423 22.9586 93.6719 22.9586 93.429V93.3778C22.9586 92.7472 22.786 92.2571 22.4409 91.9077C22.1 91.5582 21.5822 91.3835 20.8876 91.3835C20.1674 91.3835 19.6028 91.5412 19.1937 91.8565C18.7846 92.1719 18.497 92.5085 18.3308 92.8665L16.899 92.3551C17.1547 91.7585 17.4956 91.294 17.9217 90.9616C18.3521 90.625 18.8208 90.3906 19.3279 90.2585C19.8393 90.1222 20.3422 90.054 20.8365 90.054C21.1518 90.054 21.514 90.0923 21.9231 90.169C22.3365 90.2415 22.7349 90.3928 23.1184 90.6229C23.5062 90.853 23.8279 91.2003 24.0836 91.6648C24.3393 92.1293 24.4672 92.7514 24.4672 93.5312V100H22.9586V98.6705H22.8819C22.7797 98.8835 22.6092 99.1115 22.3706 99.3544C22.1319 99.5973 21.8145 99.804 21.4181 99.9744C21.0218 100.145 20.5382 100.23 19.9672 100.23ZM20.1973 98.875C20.7939 98.875 21.2967 98.7578 21.7058 98.5234C22.1191 98.2891 22.4302 97.9865 22.639 97.6158C22.8521 97.245 22.9586 96.8551 22.9586 96.446V95.0653C22.8947 95.142 22.7541 95.2124 22.5368 95.2763C22.3237 95.3359 22.0765 95.3892 21.7953 95.4361C21.5183 95.4787 21.2477 95.517 20.9835 95.5511C20.7235 95.581 20.5126 95.6065 20.3507 95.6278C19.9586 95.679 19.5922 95.7621 19.2512 95.8771C18.9146 95.9879 18.6419 96.1562 18.4331 96.3821C18.2285 96.6037 18.1262 96.9062 18.1262 97.2898C18.1262 97.8139 18.3201 98.2102 18.7079 98.4787C19.1 98.7429 19.5964 98.875 20.1973 98.875ZM27.8406 103.682C27.5849 103.682 27.3569 103.661 27.1566 103.618C26.9563 103.58 26.8178 103.541 26.7411 103.503L27.1246 102.173C27.4911 102.267 27.815 102.301 28.0962 102.276C28.3775 102.25 28.6268 102.124 28.8441 101.898C29.0657 101.677 29.2681 101.317 29.4513 100.818L29.7326 100.051L26.1019 90.1818H27.7383L30.4485 98.0057H30.5508L33.261 90.1818H34.8974L30.7298 101.432C30.5423 101.939 30.31 102.359 30.033 102.691C29.756 103.028 29.4343 103.277 29.0678 103.439C28.7056 103.601 28.2965 103.682 27.8406 103.682ZM49.9794 90.1818L46.3487 100H44.8146L41.1839 90.1818H42.8203L45.5305 98.0057H45.6328L48.343 90.1818H49.9794ZM51.9705 100V90.1818H53.479V100H51.9705ZM52.7376 88.5455C52.4435 88.5455 52.19 88.4453 51.9769 88.245C51.7681 88.0447 51.6637 87.804 51.6637 87.5227C51.6637 87.2415 51.7681 87.0007 51.9769 86.8004C52.19 86.6001 52.4435 86.5 52.7376 86.5C53.0316 86.5 53.283 86.6001 53.4918 86.8004C53.7049 87.0007 53.8114 87.2415 53.8114 87.5227C53.8114 87.804 53.7049 88.0447 53.4918 88.245C53.283 88.4453 53.0316 88.5455 52.7376 88.5455ZM59.9494 100.205C59.1312 100.205 58.4089 99.9979 57.7825 99.5845C57.1561 99.1669 56.666 98.5788 56.3123 97.8203C55.9586 97.0575 55.7818 96.1562 55.7818 95.1165C55.7818 94.0852 55.9586 93.1903 56.3123 92.4318C56.666 91.6733 57.1582 91.0874 57.7889 90.674C58.4196 90.2607 59.1483 90.054 59.975 90.054C60.6142 90.054 61.1191 90.1605 61.4899 90.3736C61.8649 90.5824 62.1504 90.821 62.3464 91.0895C62.5467 91.3537 62.7022 91.571 62.813 91.7415H62.9409V86.9091H64.4494V100H62.992V98.4915H62.813C62.7022 98.6705 62.5446 98.8963 62.34 99.169C62.1355 99.4375 61.8436 99.6783 61.4643 99.8913C61.085 100.1 60.5801 100.205 59.9494 100.205ZM60.1539 98.8494C60.7591 98.8494 61.2704 98.6918 61.688 98.3764C62.1056 98.0568 62.4231 97.6158 62.6404 97.0533C62.8578 96.4865 62.9664 95.8324 62.9664 95.0909C62.9664 94.358 62.8599 93.7166 62.6468 93.1669C62.4338 92.6129 62.1184 92.1825 61.7008 91.8757C61.2832 91.5646 60.7676 91.4091 60.1539 91.4091C59.5147 91.4091 58.9821 91.5732 58.5559 91.9013C58.1341 92.2251 57.8166 92.6662 57.6035 93.2244C57.3947 93.7784 57.2903 94.4006 57.2903 95.0909C57.2903 95.7898 57.3968 96.4247 57.6099 96.9957C57.8272 97.5625 58.1468 98.0142 58.5687 98.3509C58.9949 98.6832 59.5233 98.8494 60.1539 98.8494ZM71.5382 100.205C70.5922 100.205 69.7761 99.9957 69.09 99.5781C68.4082 99.1562 67.8819 98.5682 67.5112 97.8139C67.1447 97.0554 66.9615 96.1733 66.9615 95.1676C66.9615 94.1619 67.1447 93.2756 67.5112 92.5085C67.8819 91.7372 68.3975 91.1364 69.0581 90.706C69.7228 90.2713 70.4984 90.054 71.3848 90.054C71.8961 90.054 72.4011 90.1392 72.8997 90.3097C73.3983 90.4801 73.8521 90.7571 74.2612 91.1406C74.6703 91.5199 74.9963 92.0227 75.2392 92.6491C75.4821 93.2756 75.6035 94.0469 75.6035 94.9631V95.6023H68.0353V94.2983H74.0694C74.0694 93.7443 73.9586 93.25 73.737 92.8153C73.5197 92.3807 73.2086 92.0376 72.8038 91.7862C72.4032 91.5348 71.9302 91.4091 71.3848 91.4091C70.7839 91.4091 70.264 91.5582 69.8251 91.8565C69.3904 92.1506 69.0559 92.5341 68.8216 93.0071C68.5872 93.4801 68.47 93.9872 68.47 94.5284V95.3977C68.47 96.1392 68.5978 96.7678 68.8535 97.2834C69.1135 97.7947 69.4735 98.1847 69.9338 98.4531C70.394 98.7173 70.9288 98.8494 71.5382 98.8494C71.9345 98.8494 72.2924 98.794 72.612 98.6832C72.9359 98.5682 73.215 98.3977 73.4494 98.1719C73.6838 97.9418 73.8649 97.6562 73.9927 97.3153L75.4501 97.7244C75.2967 98.2188 75.0389 98.6534 74.6767 99.0284C74.3145 99.3991 73.867 99.6889 73.3343 99.8977C72.8017 100.102 72.2029 100.205 71.5382 100.205ZM81.8869 100.205C81.0005 100.205 80.2228 99.9936 79.5538 99.5717C78.889 99.1499 78.3691 98.5597 77.9941 97.8011C77.6234 97.0426 77.438 96.1562 77.438 95.142C77.438 94.1193 77.6234 93.2266 77.9941 92.4638C78.3691 91.701 78.889 91.1087 79.5538 90.6868C80.2228 90.2649 81.0005 90.054 81.8869 90.054C82.7733 90.054 83.5488 90.2649 84.2136 90.6868C84.8826 91.1087 85.4025 91.701 85.7733 92.4638C86.1483 93.2266 86.3358 94.1193 86.3358 95.142C86.3358 96.1562 86.1483 97.0426 85.7733 97.8011C85.4025 98.5597 84.8826 99.1499 84.2136 99.5717C83.5488 99.9936 82.7733 100.205 81.8869 100.205ZM81.8869 98.8494C82.5602 98.8494 83.1142 98.6768 83.5488 98.3317C83.9835 97.9865 84.3052 97.5327 84.514 96.9702C84.7228 96.4077 84.8272 95.7983 84.8272 95.142C84.8272 94.4858 84.7228 93.8743 84.514 93.3075C84.3052 92.7408 83.9835 92.2827 83.5488 91.9332C83.1142 91.5838 82.5602 91.4091 81.8869 91.4091C81.2136 91.4091 80.6596 91.5838 80.225 91.9332C79.7903 92.2827 79.4686 92.7408 79.2598 93.3075C79.051 93.8743 78.9466 94.4858 78.9466 95.142C78.9466 95.7983 79.051 96.4077 79.2598 96.9702C79.4686 97.5327 79.7903 97.9865 80.225 98.3317C80.6596 98.6768 81.2136 98.8494 81.8869 98.8494Z" fill="white"/>
</svg>
